# xmcd
#
# Track frame offsets: 
#        150
#        7910
#        27275
#        44172
#        60773
#        75880
#        92819
#        105805
#        123754
#        140078
#        158203
#        184950
#        202312
#        223211
#        251694
#
# Disc length: 3687 seconds
#
# Revision: 0
# Processed by: cddbd v1.5.2PL0 Copyright (c) Steve Scherf et al.
# Submitted via: ExactAudioCopyFreeDBPlugin 1.0
#
DISCID=c80e650f
DTITLE=Ken Hensley - 2013 - Live Tales
DYEAR=2013
DGENRE=
TTITLE0=Introduction 
TTITLE1=Free Me 
TTITLE2=Longer Shadows 
TTITLE3=The Wizard 
TTITLE4=I Don't Wanna Wait 
TTITLE5=Wise Man 
TTITLE6=Through The Eyes Of A Child 
TTITLE7=Rain 
TTITLE8=Come To Me 
TTITLE9=There Comes A Time 
TTITLE10=July Morning 
TTITLE11=Slipping Away 
TTITLE12=Tales 
TTITLE13=I Close My Eyes 
TTITLE14=Lady In Black (
EXTD=
EXTT0=
EXTT1=
EXTT2=
EXTT3=
EXTT4=
EXTT5=
EXTT6=
EXTT7=
EXTT8=
EXTT9=
EXTT10=
EXTT11=
EXTT12=
EXTT13=
EXTT14=
PLAYORDER=
